<?xml version="1.0" encoding="UTF-8" standalone="no"?>
<svg
   xml:space="preserve"
   width="66"
   height="66"
   version="1.1"
   id="svg5"
   sodipodi:docname="bal_rce.svg"
   inkscape:version="1.4.2 (f4327f4, 2025-05-13)"
   xmlns:inkscape="http://www.inkscape.org/namespaces/inkscape"
   xmlns:sodipodi="http://sodipodi.sourceforge.net/DTD/sodipodi-0.dtd"
   xmlns="http://www.w3.org/2000/svg"
   xmlns:svg="http://www.w3.org/2000/svg"><defs
     id="defs5" /><sodipodi:namedview
     id="namedview5"
     pagecolor="#505050"
     bordercolor="#ffffff"
     borderopacity="1"
     inkscape:showpageshadow="0"
     inkscape:pageopacity="0"
     inkscape:pagecheckerboard="1"
     inkscape:deskcolor="#505050"
     showguides="false"
     inkscape:zoom="13.59"
     inkscape:cx="21.523179"
     inkscape:cy="30.206034"
     inkscape:window-width="1920"
     inkscape:window-height="1094"
     inkscape:window-x="-11"
     inkscape:window-y="-11"
     inkscape:window-maximized="1"
     inkscape:current-layer="g7" /><path
     fill="none"
     d="M -0.0639795,0 H 128 V 128 H -0.0639795 Z"
     style="fill:#ffffff;fill-opacity:0;stroke:none;stroke-width:1.00025"
     id="path1" /><path
     d="m 16.728664,20.498665 m 0,0 c -7.03,0 -12.729999,5.699 -12.729999,12.727001 v 0.546 c 0,7.026999 5.699999,12.726999 12.729999,12.726999 h 32.543001 c 7.027,0 12.727,-5.699 12.727,-12.726999 v -0.546 c 0,-7.027 -5.699,-12.727001 -12.727,-12.727001 h -32.543"
     style="fill:none;stroke:#000000;stroke-width:7.99733;stroke-linecap:round;stroke-linejoin:round;stroke-miterlimit:4;stroke-opacity:1"
     id="path2" /><path
     d="m 16.932665,20.498665 m 0,0 c -7.141,0 -12.934,5.789001 -12.934,12.934 v 0.132001 c 0,7.143999 5.793,12.933999 12.934,12.933999 h 32.132 c 7.145,0 12.934,-5.789 12.934,-12.933999 v -0.132001 c 0,-7.143999 -5.789,-12.934 -12.934,-12.934 h -32.132"
     style="fill:#000000;fill-opacity:1;fill-rule:nonzero;stroke:#ffffff;stroke-width:3.99867;stroke-linecap:round;stroke-linejoin:round;stroke-miterlimit:4;stroke-opacity:1"
     id="path3" /><path
     d="m 21.998665,33.498665 m 0,0 a 4.9965,4.9965 0 0 0 -9.993,10e-4 4.9965,4.9965 0 1 0 9.993,-10e-4"
     style="fill:#00ff00;fill-opacity:1;fill-rule:nonzero;stroke:none"
     id="path4" /><path
     d="m 53.994665,33.498665 m 0,0 a 5,5 0 0 0 -4.996,-4.995999 5,5 0 0 0 -4.996,4.995999 5,5 0 0 0 4.996,4.996 5,5 0 0 0 4.996,-4.996 m -15.996,0 a 4.9950005,4.9950005 0 0 0 -9.990001,10e-4 4.9950005,4.9950005 0 1 0 9.990001,-10e-4"
     style="fill:#333333;fill-opacity:1;fill-rule:nonzero;stroke:none"
     id="path5" /><g
     id="g7"
     transform="rotate(90,79.294424,48.706185)"><path
       fill="none"
       d="M 0,0 H 128 V 128 H 0 Z"
       style="fill:#ffffff;fill-opacity:0;stroke:none"
       id="path1-2" /><path
       d="m -26.343,30.786 h 4.305 c 0.93,0 1.684,0.754 1.684,1.684 v 0.072 c 0,0.93 -0.754,1.684 -1.684,1.684 h -4.305 c -0.93,0 -1.684,-0.754 -1.684,-1.684 V 32.47 c 0,-0.93 0.754,-1.684 1.684,-1.684 m 0,0"
       style="fill:none;stroke:#000000;stroke-width:1.058;stroke-linecap:round;stroke-linejoin:round;stroke-miterlimit:4;stroke-opacity:1"
       transform="matrix(0,7.55891,-7.55891,0,309.71,277.856)"
       id="path2-7" /><path
       d="m -26.316,30.786 h 4.25 a 1.71,1.71 0 0 1 1.712,1.711 v 0.018 a 1.71,1.71 0 0 1 -1.711,1.71 h -4.251 a 1.71,1.71 0 0 1 -1.711,-1.71 v -0.018 c 0,-0.945 0.766,-1.71 1.71,-1.71 z m 0,0"
       style="fill:#000000;fill-opacity:1;fill-rule:nonzero;stroke:#ffffff;stroke-width:0.529;stroke-linecap:round;stroke-linejoin:round;stroke-miterlimit:4;stroke-opacity:1"
       transform="matrix(0,7.55891,-7.55891,0,309.71,277.856)"
       id="path3-6" /><path
       d="M 64,84 A 4.9965,4.9965 0 1 1 63.999,74.007 4.9965,4.9965 0 0 1 64,84 m 0,0"
       style="fill:#333333;fill-opacity:1;fill-rule:nonzero;stroke:none"
       id="path4-1" /><path
       d="M 64,100 A 4.995,4.995 0 1 1 63.999,90.01 4.995,4.995 0 0 1 64,100 m 0,0"
       style="fill:#333333;fill-opacity:1;fill-rule:nonzero;stroke:none"
       id="path5-4" /><path
       d="M 64,115.996 A 5,5 0 0 1 59.004,111 5,5 0 0 1 64,106.004 5,5 0 0 1 68.996,111 5,5 0 0 1 64,115.996 m 0,0"
       style="fill:#333333;fill-opacity:1;fill-rule:nonzero;stroke:none"
       id="path6" /></g></svg>
