<?xml version="1.0" encoding="UTF-8" standalone="no"?>
<svg
   xml:space="preserve"
   width="66"
   height="66"
   version="1.1"
   id="svg5"
   xmlns="http://www.w3.org/2000/svg"
   xmlns:svg="http://www.w3.org/2000/svg"><defs
     id="defs5" /><path
     fill="none"
     d="M -0.0639795,0 H 128 V 128 H -0.0639795 Z"
     style="fill:#ffffff;fill-opacity:0;stroke:none;stroke-width:1.00025"
     id="path1" /><path
     d="m 49.268666,20.498665 m 0,0 c 7.03,0 12.729999,5.699 12.729999,12.727001 v 0.546 c 0,7.026999 -5.699999,12.726999 -12.729999,12.726999 H 16.725665 c -7.027,0 -12.727,-5.699 -12.727,-12.726999 v -0.546 c 0,-7.027 5.699,-12.727001 12.727,-12.727001 h 32.543"
     style="fill:none;stroke:#000000;stroke-width:7.99733;stroke-linecap:round;stroke-linejoin:round;stroke-miterlimit:4;stroke-opacity:1"
     id="path2" /><path
     d="m 49.064665,20.498665 m 0,0 c 7.141,0 12.934,5.789001 12.934,12.934 v 0.132001 c 0,7.143999 -5.793,12.933999 -12.934,12.933999 h -32.132 c -7.145,0 -12.934,-5.789 -12.934,-12.933999 v -0.132001 c 0,-7.143999 5.789,-12.934 12.934,-12.934 h 32.132"
     style="fill:#000000;fill-opacity:1;fill-rule:nonzero;stroke:#ffffff;stroke-width:3.99867;stroke-linecap:round;stroke-linejoin:round;stroke-miterlimit:4;stroke-opacity:1"
     id="path3" /><path
     d="m 43.998665,33.498665 m 0,0 a 4.9965,4.9965 0 0 1 9.993,10e-4 4.9965,4.9965 0 1 1 -9.993,-10e-4"
     style="fill:#00ff00;fill-opacity:1;fill-rule:nonzero;stroke:none"
     id="path4" /><path
     d="m 12.002665,33.498665 m 0,0 a 5,5 0 0 1 4.996,-4.995999 5,5 0 0 1 4.996,4.995999 5,5 0 0 1 -4.996,4.996 5,5 0 0 1 -4.996,-4.996 m 15.996,0 a 4.9950005,4.9950005 0 0 1 9.990001,10e-4 4.9950005,4.9950005 0 1 1 -9.990001,-10e-4"
     style="fill:#333333;fill-opacity:1;fill-rule:nonzero;stroke:none"
     id="path5" /><path
     style="fill:#ffff00;fill-opacity:1;stroke-width:0.147059"
     d="m 47.144418,38.026463 c -1.03103,-0.434368 -2.018545,-1.346366 -2.560503,-2.364698 -0.344448,-0.647214 -0.39141,-0.902648 -0.392032,-2.132353 -6e-4,-1.185839 0.05371,-1.507648 0.359235,-2.128518 1.164891,-2.367243 4.061545,-3.464795 6.348884,-2.405613 2.247598,1.04078 3.429242,3.347599 2.857651,5.578738 -0.588155,2.295794 -2.242333,3.65985 -4.566477,3.765574 -0.999103,0.04545 -1.307677,-0.0018 -2.046758,-0.31313 z"
     id="path6" /></svg>
