<?xml version="1.0" encoding="UTF-8" standalone="no"?>
<svg
   xml:space="preserve"
   width="98"
   height="98"
   version="1.1"
   id="svg5"
   sodipodi:docname="cc_b.svg"
   inkscape:version="1.4.2 (f4327f4, 2025-05-13)"
   xmlns:inkscape="http://www.inkscape.org/namespaces/inkscape"
   xmlns:sodipodi="http://sodipodi.sourceforge.net/DTD/sodipodi-0.dtd"
   xmlns="http://www.w3.org/2000/svg"
   xmlns:svg="http://www.w3.org/2000/svg"><defs
     id="defs5" /><sodipodi:namedview
     id="namedview5"
     pagecolor="#505050"
     bordercolor="#ffffff"
     borderopacity="1"
     inkscape:showpageshadow="0"
     inkscape:pageopacity="0"
     inkscape:pagecheckerboard="1"
     inkscape:deskcolor="#505050"
     showguides="true"
     inkscape:zoom="6.5"
     inkscape:cx="48.461538"
     inkscape:cy="48.384615"
     inkscape:window-width="1920"
     inkscape:window-height="1094"
     inkscape:window-x="-11"
     inkscape:window-y="-11"
     inkscape:window-maximized="1"
     inkscape:current-layer="svg5" /><path
     d="m 115.46474,60.688695 m 0,0 a 4.9965,4.9965 0 0 0 -9.99299,10e-4 4.9965,4.9965 0 1 0 9.99299,-10e-4"
     style="fill:#00ff00;fill-opacity:1;fill-rule:nonzero;stroke:none"
     id="path4"
     inkscape:label="Vert" /><path
     d="m 105.2538,22.855145 a 4.9965,4.9965 0 1 1 9.99298,-0.001 4.9965,4.9965 0 0 1 -9.99298,0.001 m 0,0"
     style="fill:#333333;fill-opacity:1;fill-rule:nonzero;stroke:none"
     id="path4-1"
     inkscape:label="Gris" /><path
     d="m 104.87083,35.006477 c -6.7e-4,-6.659997 9.98932,-6.660997 9.98999,-10e-4 2.8e-4,2.758664 -2.23584,4.995222 -4.99449,4.995498 -2.75867,2.76e-4 -4.99523,-2.235834 -4.9955,-4.994498"
     style="fill:#ffffff;fill-opacity:1;fill-rule:nonzero;stroke:none"
     id="path5-4"
     inkscape:transform-center-x="-3.1640912"
     inkscape:transform-center-y="11.111111"
     sodipodi:nodetypes="cssc"
     inkscape:label="Blanc" /><path
     d="m 105.81879,11.745207 a 5,5 0 0 1 4.99599,-4.9959978 5,5 0 0 1 4.99599,4.9959978 5,5 0 0 1 -4.99599,4.996 5,5 0 0 1 -4.99599,-4.996 m 0,0"
     style="fill:#000000;fill-opacity:1;fill-rule:nonzero;stroke:none"
     id="path6"
     inkscape:label="Noir" /><path
     d="m 115.48291,73.312018 a 4.996,4.996 0 1 1 -9.99198,0 4.996,4.996 0 1 1 9.99198,0 m 0,0"
     style="fill:#ffff00;fill-opacity:1;fill-rule:nonzero;stroke:none"
     id="path7-3-3"
     inkscape:label="Jaune" /><path
     d="m 116.48007,85.279376 c 0,2.759216 -2.23679,4.995998 -4.99601,4.995998 -2.7592,0 -4.99598,-2.236782 -4.99598,-4.995998 0,-6.66133 9.99199,-6.66133 9.99199,0"
     style="display:inline;fill:#ff0000;fill-opacity:1;fill-rule:nonzero;stroke:none"
     id="path5-7"
     inkscape:label="Rouge"
     sodipodi:nodetypes="cssc" /><path
     d="m 115.05128,48.358089 a 5,5 0 1 1 -9.99999,0 5,5 0 0 1 9.99999,0 m 0,0"
     style="fill:#ff00ff;fill-opacity:1;fill-rule:nonzero;stroke:none"
     id="path5-9" /><path
     fill="none"
     d="M -36,-8 H 92 V 120 H -36 Z"
     style="fill:#ffffff;fill-opacity:0;stroke:none"
     id="path1" /><path
     d="m 16.992205,35.99861 h 64.007998 c 7.18087,0 12.9936,5.820283 12.9936,12.993594 v 0.01512 c 0,7.180869 -5.82028,12.993594 -12.9936,12.993594 H 16.992205 c -7.18087,0 -12.993595,-5.820284 -12.993595,-12.993594 v -0.01512 c 0,-7.180869 5.820284,-12.993594 12.993595,-12.993594 m 0,0"
     style="fill:none;stroke:#000000;stroke-width:7.99722;stroke-linecap:round;stroke-linejoin:round;stroke-miterlimit:4;stroke-opacity:1"
     id="path2" /><path
     d="m 16.712529,35.99861 h 64.567354 c 7.02214,0 12.71392,5.691784 12.71392,12.713918 v 0.57447 c 0,7.022134 -5.69178,12.713918 -12.71392,12.713918 H 16.712529 A 12.698801,12.698801 0 0 1 3.99861,49.286998 v -0.57447 c 0,-7.022134 5.691784,-12.713918 12.713919,-12.713918 m 0,0"
     style="fill:#000000;fill-opacity:1;fill-rule:nonzero;stroke:#ffffff;stroke-width:3.99861;stroke-linecap:round;stroke-linejoin:round;stroke-miterlimit:4;stroke-opacity:1"
     id="path3" /><path
     d="m 85.996513,48.991439 a 4.9955,4.9955 0 1 1 -9.991,10e-4 4.995,4.995 0 0 1 9.99,0 z m 0,0"
     style="fill:#333333;fill-opacity:1;fill-rule:nonzero;stroke:none"
     id="path7"
     inkscape:label="5" /><path
     d="m 69.996513,48.991439 a 4.996,4.996 0 0 1 -5,4.996 4.996,4.996 0 1 1 0,-9.992 c 2.762,0 5,2.238 5,4.996 m 0,0"
     style="fill:#333333;fill-opacity:1;fill-rule:nonzero;stroke:none"
     id="path6-5"
     inkscape:label="4" /><path
     d="m 38.043502,48.985412 m 0,0 a 5.0140781,4.9965 0 0 0 -10.028146,0.001 5.0140781,4.9965 0 1 0 10.028146,-0.001"
     style="fill:#ffffff;fill-opacity:1;fill-rule:nonzero;stroke:none;stroke-width:1.00176"
     id="path4-9"
     inkscape:label="3" /><path
     d="m 53.998903,48.962722 m 0,0 a 4.9965,5.0160313 0 0 0 -9.99299,10e-4 4.9965,5.0160313 0 1 0 9.99299,-10e-4"
     style="fill:#333333;fill-opacity:1;fill-rule:nonzero;stroke:none;stroke-width:1.00195"
     id="path4-0"
     inkscape:label="2" /><path
     d="m 21.996513,48.991439 a 4.995,4.995 0 0 1 -4.996,4.996 4.993,4.993 0 0 1 -4.996,-4.996 4.996,4.996 0 1 1 9.992,0 m 0,0"
     style="fill:#333333;fill-opacity:1;fill-rule:nonzero;stroke:none"
     id="path4-6"
     inkscape:label="1" /></svg>
